# Blender v2.91.2 OBJ File: ''
# www.blender.org
mtllib 0.5m_modulo7_2000Hz_10n_60stopni_kwadratPlusJeden.mtl
o 0.5m_modulo7_2000Hz_10n_60stopni_kwadratPlusJeden
v -0.250000 0.000000 -0.250000
v -0.250000 0.024544 -0.250000
v -0.199997 0.000000 -0.250000
v -0.199997 0.111149 -0.250000
v -0.250000 0.024544 0.250000
v -0.199997 0.111149 0.250000
v -0.199997 -0.000000 0.250000
v -0.250000 -0.000000 0.250000
v -0.199997 0.000000 -0.250000
v -0.199997 0.061359 -0.250000
v -0.149994 0.000000 -0.250000
v -0.149994 0.147961 -0.250000
v -0.199997 0.061359 0.250000
v -0.149994 0.147961 0.250000
v -0.149994 -0.000000 0.250000
v -0.199997 -0.000000 0.250000
v -0.099998 -0.000000 0.250000
v -0.099998 0.036816 0.250000
v -0.149994 -0.000000 0.250000
v -0.149994 0.123417 0.250000
v -0.099998 0.036816 -0.250000
v -0.149994 0.123417 -0.250000
v -0.149994 0.000000 -0.250000
v -0.099998 0.000000 -0.250000
v -0.099998 0.000000 -0.250000
v -0.099998 0.036816 -0.250000
v -0.049999 0.000000 -0.250000
v -0.049999 0.123417 -0.250000
v -0.099998 0.036816 0.250000
v -0.049999 0.123417 0.250000
v -0.049999 -0.000000 0.250000
v -0.099998 -0.000000 0.250000
v -0.049999 0.000000 -0.250000
v -0.049999 0.061359 -0.250000
v 0.000000 0.000000 -0.250000
v 0.000000 0.147961 -0.250000
v -0.049999 0.061359 0.250000
v 0.000000 0.147961 0.250000
v 0.000000 -0.000000 0.250000
v -0.049999 -0.000000 0.250000
v 0.049999 -0.000000 0.250000
v 0.049999 0.024544 0.250000
v 0.000000 -0.000000 0.250000
v 0.000000 0.111149 0.250000
v 0.049999 0.024544 -0.250000
v 0.000000 0.111149 -0.250000
v 0.000000 0.000000 -0.250000
v 0.049999 0.000000 -0.250000
v 0.099998 -0.000000 0.250000
v 0.099998 0.012272 0.250000
v 0.049999 -0.000000 0.250000
v 0.049999 0.098873 0.250000
v 0.099998 0.012272 -0.250000
v 0.049999 0.098873 -0.250000
v 0.049999 0.000000 -0.250000
v 0.099998 0.000000 -0.250000
v 0.149994 -0.000000 0.250000
v 0.149994 0.024544 0.250000
v 0.099998 -0.000000 0.250000
v 0.099998 0.111149 0.250000
v 0.149994 0.024544 -0.250000
v 0.099998 0.111149 -0.250000
v 0.099998 0.000000 -0.250000
v 0.149994 0.000000 -0.250000
v 0.149994 0.000000 -0.250000
v 0.149994 0.061359 -0.250000
v 0.199997 0.000000 -0.250000
v 0.199997 0.147961 -0.250000
v 0.149994 0.061359 0.250000
v 0.199997 0.147961 0.250000
v 0.199997 -0.000000 0.250000
v 0.149994 -0.000000 0.250000
v 0.250000 -0.000000 0.250000
v 0.250000 0.036816 0.250000
v 0.199997 -0.000000 0.250000
v 0.199997 0.123417 0.250000
v 0.250000 0.036816 -0.250000
v 0.199997 0.123417 -0.250000
v 0.199997 0.000000 -0.250000
v 0.250000 0.000000 -0.250000
vt -5.557270 -2.500000
vt -3.102984 -2.500000
vt -5.557270 2.500000
vt 5.557270 2.500000
vt 10.000000 25.000000
vt -0.000000 25.000000
vt 10.000000 -25.000000
vt 0.000000 -25.000000
vt 11.114540 25.000000
vt 0.000000 25.000000
vt 11.114540 -25.000000
vt 0.000000 -25.000000
vt 5.000000 25.000000
vt 0.000000 25.000000
vt 5.000000 -25.000000
vt 0.000000 -25.000000
vt 2.454286 25.000000
vt 0.000000 25.000000
vt 2.454286 -25.000000
vt 0.000000 -25.000000
vt 5.557270 -2.500000
vt 5.557270 2.500000
vt 3.102984 -2.500000
vt -5.557270 2.500000
vt -7.397984 -2.500000
vt -1.262270 -2.500000
vt -7.397984 2.500000
vt 7.397984 2.500000
vt 10.000000 25.000000
vt -0.000000 25.000000
vt 10.000000 -25.000000
vt 0.000000 -25.000000
vt 14.795968 25.000000
vt 0.000000 25.000000
vt 14.795968 -25.000000
vt 0.000000 -25.000000
vt 5.000000 25.000000
vt 0.000000 25.000000
vt 5.000000 -25.000000
vt 0.000000 -25.000000
vt 6.135714 25.000000
vt 0.000000 25.000000
vt 6.135714 -25.000000
vt 0.000000 -25.000000
vt 7.397984 -2.500000
vt 7.397984 2.500000
vt 1.262270 -2.500000
vt -7.397984 2.500000
vt 6.170841 2.500000
vt 2.489413 2.500000
vt 6.170841 -2.500000
vt -6.170841 -2.500000
vt 10.000000 25.000000
vt 0.000000 25.000000
vt 10.000000 -25.000000
vt -0.000000 -25.000000
vt 12.341683 25.000000
vt 0.000000 25.000000
vt 12.341683 -25.000000
vt 0.000000 -25.000000
vt 5.000000 25.000000
vt -0.000000 25.000000
vt 5.000000 -25.000000
vt 0.000000 -25.000000
vt 3.681429 25.000000
vt 0.000000 25.000000
vt 3.681429 -25.000000
vt -0.000000 -25.000000
vt -6.170841 2.500000
vt -6.170841 -2.500000
vt -2.489413 2.500000
vt 6.170841 -2.500000
vt -6.170841 -2.500000
vt -2.489413 -2.500000
vt -6.170841 2.500000
vt 6.170841 2.500000
vt 10.000000 25.000000
vt -0.000000 25.000000
vt 10.000000 -25.000000
vt 0.000000 -25.000000
vt 12.341683 25.000000
vt 0.000000 25.000000
vt 12.341683 -25.000000
vt 0.000000 -25.000000
vt 5.000000 25.000000
vt 0.000000 25.000000
vt 5.000000 -25.000000
vt 0.000000 -25.000000
vt 3.681429 25.000000
vt 0.000000 25.000000
vt 3.681429 -25.000000
vt 0.000000 -25.000000
vt 6.170841 -2.500000
vt 6.170841 2.500000
vt 2.489413 -2.500000
vt -6.170841 2.500000
vt -7.397984 -2.500000
vt -1.262270 -2.500000
vt -7.397984 2.500000
vt 7.397984 2.500000
vt 10.000000 25.000000
vt -0.000000 25.000000
vt 10.000000 -25.000000
vt 0.000000 -25.000000
vt 14.795968 25.000000
vt 0.000000 25.000000
vt 14.795968 -25.000000
vt 0.000000 -25.000000
vt 5.000000 25.000000
vt 0.000000 25.000000
vt 5.000000 -25.000000
vt 0.000000 -25.000000
vt 6.135714 25.000000
vt 0.000000 25.000000
vt 6.135714 -25.000000
vt 0.000000 -25.000000
vt 7.397984 -2.500000
vt 7.397984 2.500000
vt 1.262270 -2.500000
vt -7.397984 2.500000
vt 5.557270 2.500000
vt 3.102984 2.500000
vt 5.557270 -2.500000
vt -5.557270 -2.500000
vt 10.000000 25.000000
vt -0.000000 25.000000
vt 10.000000 -25.000000
vt 0.000000 -25.000000
vt 11.114540 25.000000
vt 0.000000 25.000000
vt 11.114540 -25.000000
vt 0.000000 -25.000000
vt 5.000000 25.000000
vt 0.000000 25.000000
vt 5.000000 -25.000000
vt -0.000000 -25.000000
vt 2.454286 25.000000
vt 0.000000 25.000000
vt 2.454286 -25.000000
vt -0.000000 -25.000000
vt -5.557270 2.500000
vt -5.557270 -2.500000
vt -3.102984 2.500000
vt 5.557270 -2.500000
vt 4.943698 2.500000
vt 3.716556 2.500000
vt 4.943698 -2.500000
vt -4.943698 -2.500000
vt 10.000000 25.000000
vt 0.000000 25.000000
vt 10.000000 -25.000000
vt -0.000000 -25.000000
vt 9.887397 25.000000
vt 0.000000 25.000000
vt 9.887397 -25.000000
vt 0.000000 -25.000000
vt 5.000000 25.000000
vt -0.000000 25.000000
vt 5.000000 -25.000000
vt 0.000000 -25.000000
vt 1.227143 25.000000
vt 0.000000 25.000000
vt 1.227143 -25.000000
vt -0.000000 -25.000000
vt -4.943698 2.500000
vt -4.943698 -2.500000
vt -3.716556 2.500000
vt 4.943698 -2.500000
vt 5.557270 2.500000
vt 3.102984 2.500000
vt 5.557270 -2.500000
vt -5.557270 -2.500000
vt 10.000000 25.000000
vt 0.000000 25.000000
vt 10.000000 -25.000000
vt -0.000000 -25.000000
vt 11.114540 25.000000
vt 0.000000 25.000000
vt 11.114540 -25.000000
vt 0.000000 -25.000000
vt 5.000000 25.000000
vt -0.000000 25.000000
vt 5.000000 -25.000000
vt 0.000000 -25.000000
vt 2.454286 25.000000
vt 0.000000 25.000000
vt 2.454286 -25.000000
vt -0.000000 -25.000000
vt -5.557270 2.500000
vt -5.557270 -2.500000
vt -3.102984 2.500000
vt 5.557270 -2.500000
vt -7.397984 -2.500000
vt -1.262270 -2.500000
vt -7.397984 2.500000
vt 7.397984 2.500000
vt 10.000000 25.000000
vt -0.000000 25.000000
vt 10.000000 -25.000000
vt 0.000000 -25.000000
vt 14.795968 25.000000
vt 0.000000 25.000000
vt 14.795968 -25.000000
vt 0.000000 -25.000000
vt 5.000000 25.000000
vt 0.000000 25.000000
vt 5.000000 -25.000000
vt 0.000000 -25.000000
vt 6.135714 25.000000
vt 0.000000 25.000000
vt 6.135714 -25.000000
vt 0.000000 -25.000000
vt 7.397984 -2.500000
vt 7.397984 2.500000
vt 1.262270 -2.500000
vt -7.397984 2.500000
vt 6.170841 2.500000
vt 2.489413 2.500000
vt 6.170841 -2.500000
vt -6.170841 -2.500000
vt 10.000000 25.000000
vt 0.000000 25.000000
vt 10.000000 -25.000000
vt -0.000000 -25.000000
vt 12.341683 25.000000
vt 0.000000 25.000000
vt 12.341683 -25.000000
vt 0.000000 -25.000000
vt 5.000000 25.000000
vt -0.000000 25.000000
vt 5.000000 -25.000000
vt 0.000000 -25.000000
vt 3.681429 25.000000
vt 0.000000 25.000000
vt 3.681429 -25.000000
vt -0.000000 -25.000000
vt -6.170841 2.500000
vt -6.170841 -2.500000
vt -2.489413 2.500000
vt 6.170841 -2.500000
vn 0.0000 0.0000 -1.0000
vn -0.8660 0.5000 0.0000
vn 1.0000 0.0000 0.0000
vn 0.0000 -1.0000 -0.0000
vn -1.0000 0.0000 0.0000
vn 0.0000 0.0000 1.0000
vn 0.8660 0.5000 0.0000
vn 0.8661 0.5000 0.0000
usemtl Steel_-_Satin
s 1
f 1/1/1 2/2/1 3/3/1
f 3/3/1 2/2/1 4/4/1
f 5/5/2 6/6/2 2/7/2
f 2/7/2 6/6/2 4/8/2
f 6/9/3 7/10/3 4/11/3
f 4/11/3 7/10/3 3/12/3
f 7/13/4 8/14/4 3/15/4
f 3/15/4 8/14/4 1/16/4
f 8/17/5 5/18/5 1/19/5
f 1/19/5 5/18/5 2/20/5
f 8/21/6 7/22/6 5/23/6
f 5/23/6 7/22/6 6/24/6
f 9/25/1 10/26/1 11/27/1
f 11/27/1 10/26/1 12/28/1
f 13/29/2 14/30/2 10/31/2
f 10/31/2 14/30/2 12/32/2
f 14/33/3 15/34/3 12/35/3
f 12/35/3 15/34/3 11/36/3
f 15/37/4 16/38/4 11/39/4
f 11/39/4 16/38/4 9/40/4
f 16/41/5 13/42/5 9/43/5
f 9/43/5 13/42/5 10/44/5
f 16/45/6 15/46/6 13/47/6
f 13/47/6 15/46/6 14/48/6
f 17/49/6 18/50/6 19/51/6
f 19/51/6 18/50/6 20/52/6
f 21/53/7 22/54/7 18/55/7
f 18/55/7 22/54/7 20/56/7
f 22/57/5 23/58/5 20/59/5
f 20/59/5 23/58/5 19/60/5
f 23/61/4 24/62/4 19/63/4
f 19/63/4 24/62/4 17/64/4
f 24/65/3 21/66/3 17/67/3
f 17/67/3 21/66/3 18/68/3
f 24/69/1 23/70/1 21/71/1
f 21/71/1 23/70/1 22/72/1
f 25/73/1 26/74/1 27/75/1
f 27/75/1 26/74/1 28/76/1
f 29/77/2 30/78/2 26/79/2
f 26/79/2 30/78/2 28/80/2
f 30/81/3 31/82/3 28/83/3
f 28/83/3 31/82/3 27/84/3
f 31/85/4 32/86/4 27/87/4
f 27/87/4 32/86/4 25/88/4
f 32/89/5 29/90/5 25/91/5
f 25/91/5 29/90/5 26/92/5
f 32/93/6 31/94/6 29/95/6
f 29/95/6 31/94/6 30/96/6
f 33/97/1 34/98/1 35/99/1
f 35/99/1 34/98/1 36/100/1
f 37/101/2 38/102/2 34/103/2
f 34/103/2 38/102/2 36/104/2
f 38/105/3 39/106/3 36/107/3
f 36/107/3 39/106/3 35/108/3
f 39/109/4 40/110/4 35/111/4
f 35/111/4 40/110/4 33/112/4
f 40/113/5 37/114/5 33/115/5
f 33/115/5 37/114/5 34/116/5
f 40/117/6 39/118/6 37/119/6
f 37/119/6 39/118/6 38/120/6
f 41/121/6 42/122/6 43/123/6
f 43/123/6 42/122/6 44/124/6
f 45/125/7 46/126/7 42/127/7
f 42/127/7 46/126/7 44/128/7
f 46/129/5 47/130/5 44/131/5
f 44/131/5 47/130/5 43/132/5
f 47/133/4 48/134/4 43/135/4
f 43/135/4 48/134/4 41/136/4
f 48/137/3 45/138/3 41/139/3
f 41/139/3 45/138/3 42/140/3
f 48/141/1 47/142/1 45/143/1
f 45/143/1 47/142/1 46/144/1
f 49/145/6 50/146/6 51/147/6
f 51/147/6 50/146/6 52/148/6
f 53/149/7 54/150/7 50/151/7
f 50/151/7 54/150/7 52/152/7
f 54/153/5 55/154/5 52/155/5
f 52/155/5 55/154/5 51/156/5
f 55/157/4 56/158/4 51/159/4
f 51/159/4 56/158/4 49/160/4
f 56/161/3 53/162/3 49/163/3
f 49/163/3 53/162/3 50/164/3
f 56/165/1 55/166/1 53/167/1
f 53/167/1 55/166/1 54/168/1
f 57/169/6 58/170/6 59/171/6
f 59/171/6 58/170/6 60/172/6
f 61/173/8 62/174/8 58/175/8
f 58/175/8 62/174/8 60/176/8
f 62/177/5 63/178/5 60/179/5
f 60/179/5 63/178/5 59/180/5
f 63/181/4 64/182/4 59/183/4
f 59/183/4 64/182/4 57/184/4
f 64/185/3 61/186/3 57/187/3
f 57/187/3 61/186/3 58/188/3
f 64/189/1 63/190/1 61/191/1
f 61/191/1 63/190/1 62/192/1
f 65/193/1 66/194/1 67/195/1
f 67/195/1 66/194/1 68/196/1
f 69/197/2 70/198/2 66/199/2
f 66/199/2 70/198/2 68/200/2
f 70/201/3 71/202/3 68/203/3
f 68/203/3 71/202/3 67/204/3
f 71/205/4 72/206/4 67/207/4
f 67/207/4 72/206/4 65/208/4
f 72/209/5 69/210/5 65/211/5
f 65/211/5 69/210/5 66/212/5
f 72/213/6 71/214/6 69/215/6
f 69/215/6 71/214/6 70/216/6
f 73/217/6 74/218/6 75/219/6
f 75/219/6 74/218/6 76/220/6
f 77/221/7 78/222/7 74/223/7
f 74/223/7 78/222/7 76/224/7
f 78/225/5 79/226/5 76/227/5
f 76/227/5 79/226/5 75/228/5
f 79/229/4 80/230/4 75/231/4
f 75/231/4 80/230/4 73/232/4
f 80/233/3 77/234/3 73/235/3
f 73/235/3 77/234/3 74/236/3
f 80/237/1 79/238/1 77/239/1
f 77/239/1 79/238/1 78/240/1
