# Blender v2.91.2 OBJ File: ''
# www.blender.org
mtllib 1D_1m_modulo7_1000hz_12n_15stopni_kwadratModulo.mtl
o 1D_1m_modulo7_1000Hz_12n_15stopni_kwadratModulo
v -0.416657 -0.000000 0.500000
v -0.416657 0.024540 0.500000
v -0.500001 -0.000000 0.500000
v -0.500001 0.046871 0.500000
v -0.416657 0.024540 -0.500000
v -0.500001 0.046871 -0.500000
v -0.500001 0.000000 -0.500000
v -0.416657 0.000000 -0.500000
v -0.416657 0.000000 -0.500000
v -0.416657 0.098171 -0.500000
v -0.333344 0.000000 -0.500000
v -0.333344 0.120503 -0.500000
v -0.416657 0.098171 0.500000
v -0.333344 0.120502 0.500000
v -0.333344 -0.000000 0.500000
v -0.416657 -0.000000 0.500000
v -0.250001 -0.000000 0.500000
v -0.250001 0.049084 0.500000
v -0.333344 -0.000000 0.500000
v -0.333344 0.071411 0.500000
v -0.250001 0.049084 -0.500000
v -0.333344 0.071411 -0.500000
v -0.333344 0.000000 -0.500000
v -0.250001 0.000000 -0.500000
v -0.250001 0.000000 -0.500000
v -0.250001 0.049084 -0.500000
v -0.166673 0.000000 -0.500000
v -0.166673 0.071411 -0.500000
v -0.250001 0.049084 0.500000
v -0.166673 0.071411 0.500000
v -0.166673 -0.000000 0.500000
v -0.250001 -0.000000 0.500000
v -0.083329 -0.000000 0.500000
v -0.083329 0.098171 0.500000
v -0.166673 -0.000000 0.500000
v -0.166673 0.120502 0.500000
v -0.083329 0.098171 -0.500000
v -0.166673 0.120503 -0.500000
v -0.166673 0.000000 -0.500000
v -0.083329 0.000000 -0.500000
v -0.083329 0.000000 -0.500000
v -0.083329 0.024540 -0.500000
v 0.000001 0.000000 -0.500000
v 0.000001 0.046871 -0.500000
v -0.083329 0.024540 0.500000
v 0.000001 0.046871 0.500000
v 0.000001 -0.000000 0.500000
v -0.083329 -0.000000 0.500000
v 0.083335 -0.000000 0.500000
v 0.000001 0.022327 0.500000
v 0.000001 -0.000000 0.500000
v 0.000001 0.022327 -0.500000
v 0.000001 0.000000 -0.500000
v 0.083335 0.000000 -0.500000
v 0.166671 -0.000000 0.500000
v 0.166671 0.024540 0.500000
v 0.083335 -0.000000 0.500000
v 0.083335 0.046871 0.500000
v 0.166671 0.024540 -0.500000
v 0.083335 0.046871 -0.500000
v 0.083335 0.000000 -0.500000
v 0.166671 0.000000 -0.500000
v 0.166671 0.000000 -0.500000
v 0.166671 0.098171 -0.500000
v 0.249999 0.000000 -0.500000
v 0.249999 0.120503 -0.500000
v 0.166671 0.098171 0.500000
v 0.249999 0.120502 0.500000
v 0.249999 -0.000000 0.500000
v 0.166671 -0.000000 0.500000
v 0.249999 0.000000 -0.500000
v 0.249999 0.049084 -0.500000
v 0.333343 0.000000 -0.500000
v 0.333343 0.071411 -0.500000
v 0.249999 0.049084 0.500000
v 0.333343 0.071411 0.500000
v 0.333343 -0.000000 0.500000
v 0.249999 -0.000000 0.500000
v 0.333343 0.000000 -0.500000
v 0.333343 0.049084 -0.500000
v 0.416656 0.000000 -0.500000
v 0.416656 0.071411 -0.500000
v 0.333343 0.049084 0.500000
v 0.416656 0.071411 0.500000
v 0.416656 -0.000000 0.500000
v 0.333343 -0.000000 0.500000
v 0.416656 0.000000 -0.500000
v 0.416656 0.098171 -0.500000
v 0.499999 0.000000 -0.500000
v 0.499999 0.120503 -0.500000
v 0.416656 0.098171 0.500000
v 0.499999 0.120502 0.500000
v 0.499999 -0.000000 0.500000
v 0.416656 -0.000000 0.500000
vt 2.343598 4.166667
vt -0.110688 4.166667
vt 2.343598 -4.166667
vt -2.343598 -4.166667
vt 8.627302 50.000000
vt 0.000000 50.000000
vt 8.627302 -50.000000
vt -0.000000 -50.000000
vt 4.687196 50.000000
vt 0.000000 50.000000
vt 4.687196 -50.000000
vt 0.000000 -50.000000
vt 8.333333 50.000000
vt -0.000000 50.000000
vt 8.333333 -50.000000
vt 0.000000 -50.000000
vt 2.454286 50.000000
vt 0.000000 50.000000
vt 2.454286 -50.000000
vt -0.000000 -50.000000
vt -2.343598 4.166667
vt -2.343598 -4.166667
vt 0.110688 4.166667
vt 2.343598 -4.166667
vt -6.025026 -4.166667
vt 3.792116 -4.166667
vt -6.025026 4.166667
vt 6.025026 4.166667
vt 8.627302 50.000000
vt -0.000000 50.000000
vt 8.627302 -50.000000
vt 0.000000 -50.000000
vt 12.050053 50.000000
vt 0.000000 50.000000
vt 12.050053 -50.000000
vt 0.000000 -50.000000
vt 8.333333 50.000000
vt 0.000000 50.000000
vt 8.333333 -50.000000
vt 0.000000 -50.000000
vt 9.817143 50.000000
vt 0.000000 50.000000
vt 9.817143 -50.000000
vt 0.000000 -50.000000
vt 6.025026 -4.166667
vt 6.025026 4.166667
vt -3.792116 -4.166667
vt -6.025026 4.166667
vt 3.570741 4.166667
vt -1.337831 4.166667
vt 3.570741 -4.166667
vt -3.570741 -4.166667
vt 8.627302 50.000000
vt 0.000000 50.000000
vt 8.627302 -50.000000
vt -0.000000 -50.000000
vt 7.141481 50.000000
vt 0.000000 50.000000
vt 7.141481 -50.000000
vt 0.000000 -50.000000
vt 8.333333 50.000000
vt -0.000000 50.000000
vt 8.333333 -50.000000
vt 0.000000 -50.000000
vt 4.908571 50.000000
vt 0.000000 50.000000
vt 4.908571 -50.000000
vt -0.000000 -50.000000
vt -3.570741 4.166667
vt -3.570741 -4.166667
vt 1.337831 4.166667
vt 3.570741 -4.166667
vt -3.570741 -4.166667
vt 1.337831 -4.166667
vt -3.570741 4.166667
vt 3.570741 4.166667
vt 8.627302 50.000000
vt -0.000000 50.000000
vt 8.627302 -50.000000
vt 0.000000 -50.000000
vt 7.141481 50.000000
vt 0.000000 50.000000
vt 7.141481 -50.000000
vt 0.000000 -50.000000
vt 8.333333 50.000000
vt 0.000000 50.000000
vt 8.333333 -50.000000
vt 0.000000 -50.000000
vt 4.908571 50.000000
vt 0.000000 50.000000
vt 4.908571 -50.000000
vt 0.000000 -50.000000
vt 3.570741 -4.166667
vt 3.570741 4.166667
vt -1.337831 -4.166667
vt -3.570741 4.166667
vt 6.025026 4.166667
vt -3.792116 4.166667
vt 6.025026 -4.166667
vt -6.025026 -4.166667
vt 8.627302 50.000000
vt 0.000000 50.000000
vt 8.627302 -50.000000
vt -0.000000 -50.000000
vt 12.050053 50.000000
vt 0.000000 50.000000
vt 12.050053 -50.000000
vt 0.000000 -50.000000
vt 8.333333 50.000000
vt 0.000000 50.000000
vt 8.333333 -50.000000
vt -0.000000 -50.000000
vt 9.817143 50.000000
vt 0.000000 50.000000
vt 9.817143 -50.000000
vt -0.000000 -50.000000
vt -6.025026 4.166667
vt -6.025026 -4.166667
vt 3.792116 4.166667
vt 6.025026 -4.166667
vt -2.343598 -4.166667
vt 0.110688 -4.166667
vt -2.343598 4.166667
vt 2.343598 4.166667
vt 8.627302 50.000000
vt -0.000000 50.000000
vt 8.627302 -50.000000
vt 0.000000 -50.000000
vt 4.687196 50.000000
vt 0.000000 50.000000
vt 4.687196 -50.000000
vt 0.000000 -50.000000
vt 8.333333 50.000000
vt 0.000000 50.000000
vt 8.333333 -50.000000
vt 0.000000 -50.000000
vt 2.454286 50.000000
vt 0.000000 50.000000
vt 2.454286 -50.000000
vt 0.000000 -50.000000
vt 2.343598 -4.166667
vt 2.343598 4.166667
vt -0.110688 -4.166667
vt -2.343598 4.166667
vt 1.116455 4.166667
vt -1.116455 -4.166667
vt 1.116455 -4.166667
vt 2.232910 50.000000
vt 0.000000 50.000000
vt 2.232910 -50.000000
vt 0.000000 -50.000000
vt 8.333333 50.000000
vt 0.000000 50.000000
vt 8.333333 -50.000000
vt -0.000000 -50.000000
vt 8.627302 50.000000
vt -0.000000 50.000000
vt 8.627302 -50.000000
vt 0.000000 -50.000000
vt 1.116455 -4.166667
vt -1.116455 4.166667
vt -1.116455 -4.166667
vt 2.343598 4.166667
vt -0.110688 4.166667
vt 2.343598 -4.166667
vt -2.343598 -4.166667
vt 8.627302 50.000000
vt 0.000000 50.000000
vt 8.627302 -50.000000
vt -0.000000 -50.000000
vt 4.687196 50.000000
vt 0.000000 50.000000
vt 4.687196 -50.000000
vt 0.000000 -50.000000
vt 8.333333 50.000000
vt -0.000000 50.000000
vt 8.333333 -50.000000
vt 0.000000 -50.000000
vt 2.454286 50.000000
vt 0.000000 50.000000
vt 2.454286 -50.000000
vt -0.000000 -50.000000
vt -2.343598 4.166667
vt -2.343598 -4.166667
vt 0.110688 4.166667
vt 2.343598 -4.166667
vt -6.025026 -4.166667
vt 3.792116 -4.166667
vt -6.025026 4.166667
vt 6.025026 4.166667
vt 8.627302 50.000000
vt -0.000000 50.000000
vt 8.627302 -50.000000
vt 0.000000 -50.000000
vt 12.050053 50.000000
vt 0.000000 50.000000
vt 12.050053 -50.000000
vt 0.000000 -50.000000
vt 8.333333 50.000000
vt 0.000000 50.000000
vt 8.333333 -50.000000
vt 0.000000 -50.000000
vt 9.817143 50.000000
vt 0.000000 50.000000
vt 9.817143 -50.000000
vt 0.000000 -50.000000
vt 6.025026 -4.166667
vt 6.025026 4.166667
vt -3.792116 -4.166667
vt -6.025026 4.166667
vt -3.570741 -4.166667
vt 1.337831 -4.166667
vt -3.570741 4.166667
vt 3.570741 4.166667
vt 8.627302 50.000000
vt -0.000000 50.000000
vt 8.627302 -50.000000
vt 0.000000 -50.000000
vt 7.141481 50.000000
vt 0.000000 50.000000
vt 7.141481 -50.000000
vt 0.000000 -50.000000
vt 8.333333 50.000000
vt 0.000000 50.000000
vt 8.333333 -50.000000
vt 0.000000 -50.000000
vt 4.908571 50.000000
vt 0.000000 50.000000
vt 4.908571 -50.000000
vt 0.000000 -50.000000
vt 3.570741 -4.166667
vt 3.570741 4.166667
vt -1.337831 -4.166667
vt -3.570741 4.166667
vt -3.570741 -4.166667
vt 1.337831 -4.166667
vt -3.570741 4.166667
vt 3.570741 4.166667
vt 8.627302 50.000000
vt -0.000000 50.000000
vt 8.627302 -50.000000
vt 0.000000 -50.000000
vt 7.141481 50.000000
vt 0.000000 50.000000
vt 7.141481 -50.000000
vt 0.000000 -50.000000
vt 8.333333 50.000000
vt 0.000000 50.000000
vt 8.333333 -50.000000
vt 0.000000 -50.000000
vt 4.908571 50.000000
vt 0.000000 50.000000
vt 4.908571 -50.000000
vt 0.000000 -50.000000
vt 3.570741 -4.166667
vt 3.570741 4.166667
vt -1.337831 -4.166667
vt -3.570741 4.166667
vt -6.025026 -4.166667
vt 3.792116 -4.166667
vt -6.025026 4.166667
vt 6.025026 4.166667
vt 8.627302 50.000000
vt -0.000000 50.000000
vt 8.627302 -50.000000
vt 0.000000 -50.000000
vt 12.050053 50.000000
vt 0.000000 50.000000
vt 12.050053 -50.000000
vt 0.000000 -50.000000
vt 8.333333 50.000000
vt 0.000000 50.000000
vt 8.333333 -50.000000
vt 0.000000 -50.000000
vt 9.817143 50.000000
vt 0.000000 50.000000
vt 9.817143 -50.000000
vt 0.000000 -50.000000
vt 6.025026 -4.166667
vt 6.025026 4.166667
vt -3.792116 -4.166667
vt -6.025026 4.166667
vn 0.0000 0.0000 1.0000
vn 0.2588 0.9659 0.0000
vn -1.0000 0.0000 0.0000
vn 0.0000 -1.0000 -0.0000
vn 1.0000 0.0000 0.0000
vn 0.0000 0.0000 -1.0000
vn -0.2589 0.9659 0.0000
vn -0.2588 0.9659 0.0000
usemtl Steel_-_Satin.001
s 1
f 1/1/1 2/2/1 3/3/1
f 3/3/1 2/2/1 4/4/1
f 5/5/2 6/6/2 2/7/2
f 2/7/2 6/6/2 4/8/2
f 6/9/3 7/10/3 4/11/3
f 4/11/3 7/10/3 3/12/3
f 7/13/4 8/14/4 3/15/4
f 3/15/4 8/14/4 1/16/4
f 8/17/5 5/18/5 1/19/5
f 1/19/5 5/18/5 2/20/5
f 8/21/6 7/22/6 5/23/6
f 5/23/6 7/22/6 6/24/6
f 9/25/6 10/26/6 11/27/6
f 11/27/6 10/26/6 12/28/6
f 13/29/7 14/30/7 10/31/7
f 10/31/7 14/30/7 12/32/7
f 14/33/5 15/34/5 12/35/5
f 12/35/5 15/34/5 11/36/5
f 15/37/4 16/38/4 11/39/4
f 11/39/4 16/38/4 9/40/4
f 16/41/3 13/42/3 9/43/3
f 9/43/3 13/42/3 10/44/3
f 16/45/1 15/46/1 13/47/1
f 13/47/1 15/46/1 14/48/1
f 17/49/1 18/50/1 19/51/1
f 19/51/1 18/50/1 20/52/1
f 21/53/2 22/54/2 18/55/2
f 18/55/2 22/54/2 20/56/2
f 22/57/3 23/58/3 20/59/3
f 20/59/3 23/58/3 19/60/3
f 23/61/4 24/62/4 19/63/4
f 19/63/4 24/62/4 17/64/4
f 24/65/5 21/66/5 17/67/5
f 17/67/5 21/66/5 18/68/5
f 24/69/6 23/70/6 21/71/6
f 21/71/6 23/70/6 22/72/6
f 25/73/6 26/74/6 27/75/6
f 27/75/6 26/74/6 28/76/6
f 29/77/8 30/78/8 26/79/8
f 26/79/8 30/78/8 28/80/8
f 30/81/5 31/82/5 28/83/5
f 28/83/5 31/82/5 27/84/5
f 31/85/4 32/86/4 27/87/4
f 27/87/4 32/86/4 25/88/4
f 32/89/3 29/90/3 25/91/3
f 25/91/3 29/90/3 26/92/3
f 32/93/1 31/94/1 29/95/1
f 29/95/1 31/94/1 30/96/1
f 33/97/1 34/98/1 35/99/1
f 35/99/1 34/98/1 36/100/1
f 37/101/2 38/102/2 34/103/2
f 34/103/2 38/102/2 36/104/2
f 38/105/3 39/106/3 36/107/3
f 36/107/3 39/106/3 35/108/3
f 39/109/4 40/110/4 35/111/4
f 35/111/4 40/110/4 33/112/4
f 40/113/5 37/114/5 33/115/5
f 33/115/5 37/114/5 34/116/5
f 40/117/6 39/118/6 37/119/6
f 37/119/6 39/118/6 38/120/6
f 41/121/6 42/122/6 43/123/6
f 43/123/6 42/122/6 44/124/6
f 45/125/7 46/126/7 42/127/7
f 42/127/7 46/126/7 44/128/7
f 46/129/5 47/130/5 44/131/5
f 44/131/5 47/130/5 43/132/5
f 47/133/4 48/134/4 43/135/4
f 43/135/4 48/134/4 41/136/4
f 48/137/3 45/138/3 41/139/3
f 41/139/3 45/138/3 42/140/3
f 48/141/1 47/142/1 45/143/1
f 45/143/1 47/142/1 46/144/1
f 49/145/1 50/146/1 51/147/1
f 52/148/3 53/149/3 50/150/3
f 50/150/3 53/149/3 51/151/3
f 53/152/4 54/153/4 51/154/4
f 51/154/4 54/153/4 49/155/4
f 54/156/2 52/157/2 49/158/2
f 49/158/2 52/157/2 50/159/2
f 52/160/6 54/161/6 53/162/6
f 55/163/1 56/164/1 57/165/1
f 57/165/1 56/164/1 58/166/1
f 59/167/2 60/168/2 56/169/2
f 56/169/2 60/168/2 58/170/2
f 60/171/3 61/172/3 58/173/3
f 58/173/3 61/172/3 57/174/3
f 61/175/4 62/176/4 57/177/4
f 57/177/4 62/176/4 55/178/4
f 62/179/5 59/180/5 55/181/5
f 55/181/5 59/180/5 56/182/5
f 62/183/6 61/184/6 59/185/6
f 59/185/6 61/184/6 60/186/6
f 63/187/6 64/188/6 65/189/6
f 65/189/6 64/188/6 66/190/6
f 67/191/7 68/192/7 64/193/7
f 64/193/7 68/192/7 66/194/7
f 68/195/5 69/196/5 66/197/5
f 66/197/5 69/196/5 65/198/5
f 69/199/4 70/200/4 65/201/4
f 65/201/4 70/200/4 63/202/4
f 70/203/3 67/204/3 63/205/3
f 63/205/3 67/204/3 64/206/3
f 70/207/1 69/208/1 67/209/1
f 67/209/1 69/208/1 68/210/1
f 71/211/6 72/212/6 73/213/6
f 73/213/6 72/212/6 74/214/6
f 75/215/8 76/216/8 72/217/8
f 72/217/8 76/216/8 74/218/8
f 76/219/5 77/220/5 74/221/5
f 74/221/5 77/220/5 73/222/5
f 77/223/4 78/224/4 73/225/4
f 73/225/4 78/224/4 71/226/4
f 78/227/3 75/228/3 71/229/3
f 71/229/3 75/228/3 72/230/3
f 78/231/1 77/232/1 75/233/1
f 75/233/1 77/232/1 76/234/1
f 79/235/6 80/236/6 81/237/6
f 81/237/6 80/236/6 82/238/6
f 83/239/7 84/240/7 80/241/7
f 80/241/7 84/240/7 82/242/7
f 84/243/5 85/244/5 82/245/5
f 82/245/5 85/244/5 81/246/5
f 85/247/4 86/248/4 81/249/4
f 81/249/4 86/248/4 79/250/4
f 86/251/3 83/252/3 79/253/3
f 79/253/3 83/252/3 80/254/3
f 86/255/1 85/256/1 83/257/1
f 83/257/1 85/256/1 84/258/1
f 87/259/6 88/260/6 89/261/6
f 89/261/6 88/260/6 90/262/6
f 91/263/8 92/264/8 88/265/8
f 88/265/8 92/264/8 90/266/8
f 92/267/5 93/268/5 90/269/5
f 90/269/5 93/268/5 89/270/5
f 93/271/4 94/272/4 89/273/4
f 89/273/4 94/272/4 87/274/4
f 94/275/3 91/276/3 87/277/3
f 87/277/3 91/276/3 88/278/3
f 94/279/1 93/280/1 91/281/1
f 91/281/1 93/280/1 92/282/1
