# Blender v2.91.2 OBJ File: ''
# www.blender.org
mtllib 1m_6n_120stopni.mtl
o obj.035_mesh.001
v -0.166667 0.079292 -0.333333
v -0.166667 0.100974 -0.166666
v -0.166667 0.052862 -0.333333
v -0.166667 0.100974 0.166667
v -0.333334 0.092508 0.166667
v -0.333334 0.052862 0.166667
v -0.500000 0.000000 -0.500000
v 0.500000 0.000000 -0.500000
v 0.500000 -0.000000 0.500000
v -0.500000 -0.000000 0.500000
v 0.500000 0.039646 -0.333333
v 0.333333 0.061328 -0.333333
v 0.333333 0.039646 -0.333333
v 0.500000 0.066077 -0.500000
v 0.500000 0.114189 -0.333333
v -0.333334 0.132154 0.500000
v -0.333334 0.132154 0.333334
v -0.362661 0.140620 0.333334
v -0.500000 0.180266 0.500000
v -0.500000 0.180266 0.333334
v -0.500000 0.140620 0.333334
v -0.500000 0.092508 0.166667
v -0.500000 0.074543 0.166667
v -0.333334 0.140620 0.333334
v -0.500000 0.000000 0.000000
v -0.500000 -0.000000 0.166667
v -0.500000 0.074543 0.000000
v 0.166666 0.180266 -0.166666
v 0.166666 0.180266 0.000000
v 0.333333 0.132154 0.000000
v 0.333333 0.132154 -0.166666
v -0.166667 0.092508 0.500000
v -0.166667 0.092508 0.333334
v -0.181331 0.096741 0.333334
v -0.166667 0.066077 -0.166666
v -0.166667 0.114189 0.000000
v -0.166667 0.092508 0.000000
v -0.166667 0.167051 -0.166666
v -0.166667 0.167051 -0.333333
v -0.241775 0.145369 -0.333333
v -0.166667 0.145369 -0.333333
v 0.000000 0.100974 -0.166666
v 0.000000 0.048113 -0.166666
v 0.000000 0.048113 0.000000
v 0.000000 0.079292 0.000000
v -0.166667 0.074543 0.500000
v -0.166667 0.026431 0.333334
v 0.000000 0.052862 -0.333333
v 0.000000 0.153836 0.333334
v 0.000000 0.206697 0.333334
v -0.166667 0.158585 0.333334
v -0.166667 0.048113 -0.166666
v -0.166667 0.000000 0.000000
v 0.000000 0.000000 0.000000
v 0.000000 0.074543 0.500000
v 0.000000 0.026431 0.333334
v 0.166666 0.105723 0.500000
v 0.000000 0.105723 0.500000
v -0.333334 0.153836 -0.166666
v -0.333334 0.118938 -0.166666
v -0.333334 0.118938 -0.333333
v -0.333334 0.145369 -0.333333
v 0.000000 0.066077 0.166667
v 0.166666 0.066077 0.166667
v 0.166666 0.052862 0.166667
v 0.000000 -0.000000 0.166667
v 0.166666 -0.000000 0.166667
v 0.166666 0.048113 0.000000
v -0.500000 -0.000000 0.333334
v 0.333333 0.206697 0.333334
v 0.333333 0.206697 0.500000
v 0.333333 0.193482 0.333334
v 0.195994 0.167051 0.333334
v 0.333333 0.090133 0.037554
v 0.333333 0.100974 0.000000
v 0.166666 0.100974 0.000000
v 0.333333 0.061328 -0.258225
v 0.295779 0.050487 -0.333333
v 0.166666 0.013215 -0.333333
v 0.333333 0.114189 -0.333333
v 0.333333 0.066077 -0.500000
v 0.500000 0.079292 0.000000
v 0.333333 0.079292 0.000000
v 0.500000 0.061328 0.333334
v 0.500000 0.193482 0.333334
v 0.333333 0.167051 0.333334
v 0.333333 0.061328 0.333334
v -0.500000 0.206697 -0.333333
v -0.500000 0.206697 -0.166666
v -0.333334 0.158585 -0.166666
v -0.333334 0.158585 -0.333333
v -0.333334 0.114189 0.000000
v -0.333334 0.153836 0.000000
v -0.500000 0.105723 0.000000
v -0.333334 0.193482 -0.500000
v 0.166666 0.087759 -0.333333
v 0.333333 0.039646 -0.500000
v 0.166666 0.153836 0.333334
v 0.166666 0.114189 0.333334
v 0.000000 0.114189 0.333334
v 0.166666 0.158585 0.500000
v 0.000000 0.140620 0.166667
v -0.166667 0.092508 0.166667
v -0.333334 0.026431 0.000000
v 0.333333 0.118938 0.166667
v 0.166666 0.118938 0.166667
v 0.500000 -0.000000 0.166667
v 0.500000 0.127405 0.166667
v 0.500000 -0.000000 0.333334
v 0.333333 0.000000 -0.500000
v 0.500000 0.000000 0.000000
v -0.333334 0.026431 0.166667
v 0.333333 0.158585 -0.166666
v 0.333333 0.206697 0.000000
v 0.500000 0.206697 0.000000
v 0.500000 0.158585 -0.166666
v 0.500000 0.145369 0.166667
v 0.333333 0.127405 0.166667
v 0.333333 0.145369 0.166667
v 0.000000 0.132154 -0.333333
v 0.000000 0.180266 -0.166666
v 0.166666 0.132154 -0.333333
v 0.166666 -0.000000 0.500000
v 0.000000 -0.000000 0.500000
v -0.500000 0.105723 -0.166666
v -0.333334 0.066077 -0.166666
v -0.166667 0.206697 0.000000
v -0.333334 0.206697 0.000000
v 0.166666 0.206697 -0.500000
v 0.166666 0.206697 -0.333333
v 0.166666 0.087759 -0.500000
v -0.166667 0.127405 -0.500000
v -0.166667 0.193482 -0.500000
v 0.000000 0.127405 -0.500000
v 0.000000 0.158585 -0.333333
v 0.000000 0.158585 -0.500000
v -0.333334 0.013215 -0.500000
v -0.333334 0.061328 -0.333333
v -0.500000 0.061328 -0.333333
v -0.333334 0.000000 -0.500000
v -0.500000 0.013215 -0.500000
v 0.500000 0.087759 -0.166666
v 0.500000 0.000000 -0.166666
v 0.500000 0.000000 -0.333333
v 0.333333 0.013215 0.500000
v 0.500000 0.013215 0.500000
v -0.333334 -0.000000 0.500000
v -0.333334 0.140620 0.500000
v -0.166667 0.100974 0.333334
v -0.333334 0.158585 0.166667
v -0.166667 0.158585 0.166667
v 0.333333 0.052862 0.166667
v 0.166666 0.079292 0.000000
v 0.333333 0.087759 -0.166666
v -0.166667 0.000000 -0.500000
v 0.000000 0.079292 -0.333333
v 0.166666 0.013215 -0.166666
v 0.333333 0.061328 -0.166666
v -0.166667 -0.000000 0.500000
v 0.000000 0.206697 0.166667
v 0.000000 0.140620 0.000000
v 0.166666 0.127405 -0.166666
v 0.000000 0.000000 -0.500000
v 0.000000 0.127405 -0.166666
v 0.166666 0.000000 -0.500000
v 0.333333 -0.000000 0.500000
v 0.166666 0.158585 0.333334
v -0.333334 0.052862 0.333334
v 0.166666 0.167051 0.333334
v -0.500000 0.000000 -0.166666
v -0.500000 0.000000 -0.333333
vn 1.0000 0.0000 0.0000
vn 0.0000 0.0000 1.0000
vn 0.0000 -1.0000 -0.0000
vn 0.2773 0.9608 0.0000
vn 0.2774 0.9608 0.0000
vn -1.0000 0.0000 0.0000
vn -0.2774 0.9608 0.0000
vn -0.0000 0.0000 -1.0000
vn 0.0000 0.9608 0.2773
vn 0.0000 0.9608 0.2774
vn 0.0000 0.9608 -0.2774
vn 0.0000 0.9608 -0.2773
vn -0.2773 0.9608 0.0000
vn 0.7913 0.4130 -0.4509
vn -0.7913 0.4131 -0.4508
vn 0.7991 0.4805 -0.3613
vn -0.7992 0.4805 -0.3611
usemtl None.001
s off
f 1//1 2//1 3//1
f 4//2 5//2 6//2
f 8//3 54//3 10//3 69//3 26//3 25//3 170//3 171//3 7//3 140//3 155//3 163//3 165//3 110//3
f 8//3 144//3 143//3 111//3 107//3 109//3 9//3 166//3 123//3 124//3 159//3 147//3 10//3 54//3
s 1
f 11//2 12//2 13//2
f 14//1 15//1 11//1
f 16//4 17//5 18//4
f 19//6 20//6 21//6
f 21//6 22//6 23//6
f 5//1 24//1 17//1
f 32//4 33//4 34//4
f 35//1 36//1 37//1
f 38//7 39//7 40//7
f 41//1 39//1 38//1
f 49//2 50//2 51//2
f 37//8 45//8 44//8
f 43//2 35//2 52//2
f 57//2 58//2 55//2
f 63//8 64//8 65//8
f 70//1 71//1 72//1
f 73//8 70//8 72//8
f 74//9 75//10 76//9
f 77//7 78//7 79//7
f 12//6 80//6 81//6
f 82//11 83//11 74//11
f 75//2 83//2 82//2
f 11//11 13//11 77//11
f 85//2 72//2 86//2
f 74//1 83//1 75//1
f 92//2 93//2 94//2
f 61//6 62//6 95//6
f 79//2 78//2 96//2
f 18//8 21//8 20//8
f 34//8 17//8 24//8
f 97//8 81//8 14//8
f 102//8 103//8 4//8
f 18//12 24//12 5//12
f 17//2 24//2 18//2
f 6//8 112//8 23//8
f 27//6 94//6 125//6
f 126//1 60//1 92//1
f 88//8 91//8 62//8
f 61//8 138//8 139//8
f 6//6 5//6 92//6 104//6
f 34//13 149//13 4//13
f 33//2 149//2 34//2
f 93//6 150//6 128//6
f 112//6 6//6 104//6
f 92//8 93//8 36//8
f 38//2 60//2 2//2
f 40//8 39//8 41//8
f 48//6 42//6 156//6
f 40//10 41//10 133//10
f 40//2 62//2 61//2
f 155//8 140//8 137//8
f 95//8 133//8 132//8
f 33//2 100//2 149//2
f 162//8 28//8 31//8 154//8
f 37//8 161//8 45//8
f 58//6 49//6 100//6
f 43//6 54//6 44//6
f 45//6 164//6 42//6
f 164//6 121//6 120//6
f 156//6 120//6 134//6
f 167//13 101//13 73//13
f 86//1 72//1 71//1
f 98//8 167//8 73//8
f 99//8 98//8 73//8
f 72//8 86//8 73//8
f 106//11 169//11 73//11
f 98//6 167//6 106//6
f 167//6 169//6 106//6
f 169//2 167//2 73//2
f 65//8 64//8 152//8
f 65//6 76//6 153//6
f 153//6 76//6 162//6
f 77//7 12//7 78//7
f 13//1 12//1 77//1
f 78//8 12//8 13//8
f 78//5 13//5 97//5
f 105//6 118//6 74//6
f 152//6 105//6 74//6
f 30//2 75//2 82//2
f 31//8 113//8 116//8
f 158//6 154//6 77//6
f 118//6 105//6 86//6
f 122//1 96//1 131//1
f 34//8 168//8 17//8
f 97//6 13//6 12//6 81//6
f 27//6 25//6 26//6 23//6
f 11//1 144//1 8//1 14//1
f 30//6 114//6 113//6 31//6
f 31//4 28//4 29//4 30//4
f 48//12 3//12 2//12 42//12
f 43//10 52//10 53//14 54//15
f 82//1 111//1 143//1 142//1
f 56//12 47//12 46//12 55//12
f 84//1 109//1 107//1 108//1
f 162//6 76//6 29//6 28//6
f 68//10 44//10 66//16 67//17
f 91//4 88//4 89//4 90//4
f 170//6 25//6 27//6 125//6
f 55//6 58//6 100//6 56//6
f 18//4 20//4 19//4 16//4
f 77//7 79//7 157//7 158//7
f 86//2 87//2 84//2 85//2
f 171//6 139//6 141//6 7//6
f 45//6 42//6 43//6 44//6
f 49//8 98//8 99//8 100//8
f 116//12 113//12 114//12 115//12
f 119//8 117//8 108//8 118//8
f 10//2 147//2 16//2 19//2
f 131//5 96//5 78//5 97//5
f 41//1 38//1 2//1 1//1
f 131//8 165//8 163//8 134//8
f 139//6 171//6 170//6 125//6
f 44//8 54//15 53//14 37//8
f 16//2 46//2 32//2 148//2
f 62//1 59//1 60//1 61//1
f 93//1 92//1 60//1 59//1
f 57//2 145//2 71//2 101//2
f 122//12 120//12 121//12 28//12
f 165//8 131//8 97//8 110//8
f 162//10 164//10 45//10 153//10
f 35//2 43//2 42//2 2//2
f 107//1 111//1 82//1 108//1
f 46//1 47//1 33//1 32//1
f 2//2 60//2 126//2 35//2
f 64//12 63//12 100//12 99//12
f 102//1 63//1 45//1 161//1
f 102//1 49//1 100//1 63//1
f 127//9 128//9 150//9 151//9
f 30//2 82//2 115//2 114//2
f 117//11 119//11 72//11 85//11
f 40//7 61//7 60//7 38//7
f 99//6 98//6 106//6 64//6
f 100//2 49//2 51//2 149//2
f 74//11 118//11 108//11 82//11
f 122//1 131//1 129//1 130//1
f 136//6 134//6 120//6 135//6
f 59//1 62//1 91//1 90//1
f 95//10 62//10 40//10 133//10
f 108//1 117//1 85//1 84//1
f 145//2 57//2 123//2 166//2
f 153//2 45//2 44//2 68//2
f 156//2 1//2 3//2 48//2
f 55//2 46//2 159//2 124//2
f 160//13 151//13 51//13 50//13
f 12//2 11//2 15//2 80//2
f 23//8 22//8 5//8 6//8
f 21//6 69//6 10//6 19//6
f 23//6 26//6 69//6 21//6
f 65//8 67//17 66//16 63//8
f 122//2 130//2 135//2 120//2
f 161//13 37//13 103//13 102//13
f 37//1 53//1 52//1 35//1
f 134//10 132//10 1//10 156//10
f 150//6 93//6 92//6 5//6
f 6//13 168//13 34//13 4//13
f 134//8 163//8 155//8 132//8
f 35//12 126//12 92//12 36//12
f 73//11 86//11 105//11 106//11
f 22//12 21//12 18//12 5//12
f 93//8 128//8 127//8 36//8
f 162//1 96//1 122//1 28//1
f 104//4 27//4 23//4 112//4
f 125//6 89//6 88//6 139//6
f 64//8 106//8 105//8 152//8
f 28//2 121//2 164//2 162//2
f 4//2 151//2 150//2 5//2
f 162//8 154//8 158//8 157//8
f 59//7 125//7 94//7 93//7
f 34//4 24//4 148//4 32//4
f 131//8 134//8 136//8 129//8
f 132//1 133//1 41//1 1//1
f 92//2 94//2 27//2 104//2
f 102//8 4//8 151//8 160//8
f 73//13 101//13 71//13 70//13
f 46//2 16//2 147//2 159//2
f 146//2 145//2 166//2 9//2
f 14//12 81//12 80//12 15//12
f 74//9 76//9 65//9 152//9
f 77//11 154//11 142//11 11//11
f 68//6 67//6 65//6 153//6
f 51//6 151//6 4//6 149//6
f 55//2 124//2 123//2 57//2
f 98//10 49//10 58//10 57//10
f 42//6 164//6 120//6 156//6
f 56//2 100//2 33//2 47//2
f 49//1 102//1 160//1 50//1
f 86//6 72//6 119//6 118//6
f 109//1 84//1 146//1 9//1
f 59//2 90//2 89//2 125//2
f 139//8 88//8 62//8 61//8
f 168//1 6//1 5//1 17//1
f 101//6 167//6 98//6 57//6
f 148//6 24//6 17//6 16//6
f 129//13 136//13 135//13 130//13
f 61//6 95//6 137//6 138//6
f 63//1 66//1 44//1 45//1
f 96//1 162//1 157//1 79//1
f 143//1 144//1 11//1 142//1
f 137//11 141//11 139//11 138//11
f 37//1 36//1 4//1 103//1
f 151//1 4//1 36//1 127//1
f 142//8 154//8 31//8 116//8
f 137//8 140//8 7//8 141//8
f 137//8 95//8 132//8 155//8
f 87//1 86//1 71//1 145//1
f 76//2 75//2 30//2 29//2
f 8//8 110//8 97//8 14//8
f 82//1 142//1 116//1 115//1
f 84//10 87//10 145//10 146//10
