# Blender v2.91.2 OBJ File: ''
# www.blender.org
mtllib 1m_6n_60stopni.mtl
o obj.035_mesh.035
v -0.500000 0.183984 0.166666
v -0.500000 0.039646 0.333333
v -0.333333 0.039646 0.333333
v -0.333333 0.183984 0.166666
v -0.166666 0.039646 0.500000
v -0.166666 0.183984 0.333333
v -0.333333 0.125030 0.401407
v -0.333333 0.039646 0.500000
v -0.166666 0.000000 0.000000
v -0.166666 0.000000 -0.166667
v -0.166666 0.118938 -0.166667
v -0.166666 0.132154 0.000000
v -0.500000 -0.000000 0.500000
v -0.500000 0.066077 0.333333
v -0.333333 0.276491 0.166666
v -0.166666 0.223630 0.166666
v -0.166666 0.276491 0.166666
v -0.500000 0.157553 -0.500000
v -0.500000 0.157553 -0.333334
v -0.333333 0.013215 -0.333334
v -0.333333 0.013215 -0.500000
v 0.333334 0.210414 0.000000
v 0.333334 0.105723 0.000000
v 0.333334 0.170768 -0.166667
v 0.333334 0.236845 -0.166667
v 0.333334 0.092508 -0.500000
v 0.333334 0.132154 -0.500000
v 0.500000 0.000000 -0.500000
v 0.000000 0.197199 0.333333
v 0.166667 0.079292 0.333333
v 0.166667 0.052862 0.333333
v 0.500000 0.092508 -0.333334
v 0.333334 0.132154 -0.333334
v 0.333334 0.092508 -0.333334
v 0.500000 0.236845 -0.166667
v 0.333334 0.052862 -0.333334
v 0.333334 0.052862 -0.166667
v 0.333334 0.026431 0.000000
v 0.500000 0.026431 0.000000
v 0.500000 0.170768 -0.166667
v -0.333333 0.158585 -0.500000
v -0.333333 0.302922 -0.333334
v -0.166666 0.302922 -0.333334
v -0.166666 0.158585 -0.500000
v 0.500000 0.000000 -0.166667
v 0.500000 0.000000 0.000000
v 0.333334 0.105723 0.120887
v 0.394374 0.158585 0.166666
v 0.500000 0.302922 0.333333
v 0.333334 0.302922 0.333333
v 0.333334 0.145369 0.333333
v 0.500000 0.013215 0.333333
v 0.000000 0.066077 -0.333334
v -0.166666 0.210414 -0.333334
v -0.166666 0.210414 -0.272294
v -0.045184 0.105207 -0.166667
v -0.166666 0.000000 -0.500000
v -0.166666 0.105723 -0.500000
v 0.000000 0.105723 -0.500000
v 0.000000 0.000000 -0.500000
v 0.333334 0.302922 -0.166667
v 0.188961 0.177892 -0.166667
v 0.226514 0.210414 0.000000
v 0.333334 0.302922 0.000000
v 0.500000 0.158585 0.166666
v -0.166666 0.263276 -0.333334
v -0.333333 0.263276 -0.333334
v 0.333334 0.145369 0.485931
v 0.333334 0.157553 0.500000
v 0.500000 0.157553 0.500000
v 0.500000 -0.000000 0.500000
v 0.500000 -0.000000 0.333333
v 0.333334 0.145369 0.500000
v 0.333334 0.236845 -0.333334
v 0.166667 0.236845 -0.333334
v 0.166667 0.197199 -0.333334
v -0.500000 0.302922 0.166666
v 0.166667 0.263276 0.333333
v 0.333334 0.118938 0.333333
v 0.166667 0.197199 -0.166667
v 0.000000 -0.000000 0.166666
v 0.113853 0.098600 0.166666
v 0.106819 0.092508 0.000000
v 0.000000 0.000000 0.000000
v 0.166667 0.158585 -0.076300
v 0.000000 0.276491 0.166666
v 0.000000 0.276491 0.333333
v 0.000000 0.223630 0.333333
v 0.000000 0.197199 0.166666
v 0.166667 0.144338 0.000000
v 0.090367 0.236845 -0.166667
v 0.000000 0.144338 -0.059849
v 0.166667 0.158585 0.000000
v 0.166667 0.210414 0.000000
v -0.333333 0.157553 0.166666
v -0.333333 0.013215 0.333333
v -0.166666 0.013215 0.333333
v -0.166666 0.132154 0.195994
v 0.166667 0.289707 0.500000
v -0.241774 0.132154 0.000000
v -0.333333 0.132154 0.000000
v -0.166666 0.223630 0.105627
v 0.166667 0.079292 0.500000
v 0.000000 0.223630 0.424892
v 0.000000 -0.000000 0.500000
v 0.166667 -0.000000 0.500000
v 0.000000 0.158585 0.500000
v -0.333333 0.118938 -0.166667
v -0.333333 0.079292 0.000000
v -0.333333 0.052862 0.000000
v -0.333333 0.052862 -0.166667
v 0.166667 0.236845 -0.166667
v 0.166667 0.302922 -0.333334
v 0.166667 0.302922 -0.166667
v -0.333333 0.145369 -0.197187
v 0.166667 0.158585 -0.166667
v 0.166667 0.144338 0.076298
v 0.166667 0.092508 0.000000
v 0.166667 0.052862 0.166666
v 0.166667 0.066077 0.166666
v 0.500000 0.000000 -0.333334
v 0.000000 0.079292 0.166666
v 0.166667 0.026431 -0.500000
v 0.166667 0.000000 -0.500000
v 0.000000 0.223630 0.500000
v 0.500000 0.250061 0.000000
v 0.500000 0.250061 0.166666
v -0.166666 0.302922 0.333333
v -0.166666 0.158585 0.500000
v 0.000000 0.302922 0.333333
v -0.500000 -0.000000 0.166666
v -0.500000 0.079292 0.000000
v -0.500000 0.000000 0.000000
v -0.037554 0.111815 0.000000
v 0.000000 0.144338 -0.166667
v 0.000000 0.066077 -0.166667
v 0.000000 0.079292 0.000000
v 0.000000 0.092508 0.000000
v -0.113852 0.177892 0.166666
v -0.166666 0.157553 0.166666
v -0.166666 0.132154 0.166666
v -0.166666 0.132154 0.333333
v -0.257035 0.118938 -0.166667
v -0.166666 0.250061 -0.333334
v 0.166667 0.026431 -0.333334
v 0.000000 0.170768 -0.424893
v 0.007034 0.164676 -0.333334
v -0.166666 0.197199 -0.166667
v -0.166666 0.197199 0.000000
v 0.333334 0.118938 0.166666
v 0.333334 0.158585 0.166666
v -0.500000 0.210414 0.500000
v -0.333333 0.210414 0.500000
v 0.500000 0.276491 -0.500000
v 0.500000 0.276491 -0.333334
v -0.333333 -0.000000 0.500000
v -0.166666 -0.000000 0.500000
v -0.500000 0.000000 -0.500000
v -0.333333 0.000000 -0.500000
v -0.500000 0.000000 -0.333334
v -0.423701 0.223630 -0.166667
v -0.333333 0.145369 -0.166667
v -0.333333 0.145369 -0.333334
v -0.333333 0.066077 0.333333
v 0.333334 0.066077 0.166666
v -0.500000 0.000000 -0.166667
v -0.500000 0.223630 -0.166667
v -0.500000 0.158585 0.000000
v 0.333334 0.000000 -0.500000
v 0.166667 0.092508 -0.500000
v -0.333333 0.302922 0.166666
v -0.333333 0.158585 0.000000
v 0.000000 0.170768 -0.333334
v 0.000000 0.250061 -0.333334
v -0.500000 0.289707 -0.166667
v 0.333334 0.132154 -0.454221
v 0.166667 0.289707 0.333333
v 0.000000 0.170768 -0.500000
v 0.000000 0.158585 -0.166667
v 0.000000 0.236845 -0.166667
v -0.333333 0.183984 0.333333
v -0.500000 -0.000000 0.333333
v 0.333334 0.105723 0.166666
v 0.500000 -0.000000 0.166666
v 0.166667 0.263276 0.166666
v 0.166667 0.144338 0.166666
v 0.333334 -0.000000 0.500000
v 0.333334 0.013215 0.333333
v -0.500000 0.289707 -0.333334
v 0.000000 0.158585 -0.333334
v -0.333333 0.223630 -0.166667
v -0.166666 0.210414 -0.166667
v 0.000000 0.144338 0.000000
v -0.166666 0.223630 0.000000
vn 0.6547 0.7559 0.0000
vn -0.0000 -0.0000 1.0000
vn -1.0000 0.0000 0.0000
vn 1.0000 -0.0000 0.0000
vn -0.0000 0.0000 -1.0000
vn -0.0000 0.7559 -0.6547
vn -0.6547 0.7559 0.0000
vn 0.6546 0.7559 0.0000
vn -0.0000 0.7559 0.6547
vn 0.7951 0.3146 -0.5186
vn 0.7951 0.3146 0.5185
vn -0.0000 -1.0000 -0.0000
vn 0.0000 0.7559 -0.6546
vn 0.8688 0.3784 -0.3192
vn 0.8689 0.3785 0.3191
vn 0.0000 0.7559 0.6546
vn -0.2827 0.3192 -0.9045
vn -0.2827 0.3191 0.9046
usemtl None
s off
f 82//1 89//1 29//1 31//1
f 177//1 99//1 68//1 51//1
f 49//2 50//2 51//2 52//2
f 13//3 14//3 2//3
f 76//4 75//4 112//4 80//4
f 25//4 61//4 64//4 22//4
f 167//3 175//3 189//3 19//3
f 26//5 27//5 28//5
f 29//5 30//5 31//5
f 32//2 33//2 34//2
f 135//3 190//3 53//3 136//3
f 100//6 101//6 15//6 102//6
f 120//5 186//5 183//5 165//5
f 86//4 87//4 88//4 89//4
f 45//4 39//4 46//4
f 38//4 24//4 23//4
f 23//7 47//7 48//7
f 20//1 21//1 18//1 19//1
f 35//6 32//6 34//6 25//6
f 156//2 157//2 5//2 8//2
f 152//6 153//6 7//6 14//6
f 65//4 49//4 52//4
f 170//3 123//3 145//3 76//3
f 68//6 69//6 70//6
f 52//4 71//4 72//4
f 70//2 69//2 73//2
f 113//7 147//7 91//7 114//7
f 26//5 169//5 123//5 170//5
f 78//5 51//5 79//5
f 76//8 80//8 62//8
f 76//2 36//2 34//2
f 163//1 189//1 161//1 115//1
f 31//3 30//3 120//3 119//3
f 62//7 85//7 63//7
f 187//2 73//2 103//2 106//2
f 62//5 25//5 24//5
f 63//2 90//2 23//2
f 25//2 24//2 40//2 35//2
f 93//5 94//5 63//5
f 1//2 4//2 15//2 77//2
f 99//1 73//1 68//1
f 67//9 115//9 55//9 66//9
f 73//2 99//2 103//2
f 148//4 149//4 12//4 11//4
f 128//5 130//5 87//5 6//5
f 140//2 16//2 4//2 95//2
f 144//6 174//6 146//6 58//6
f 52//6 188//6 68//6 70//6
f 122//5 139//5 89//5 82//5
f 116//4 80//4 85//4
f 83//7 82//7 117//7
f 83//5 90//5 118//5
f 119//2 120//2 82//2
f 107//2 129//2 5//2 105//2
f 81//5 122//5 82//5
f 109//9 191//9 161//9 132//9
f 104//1 125//1 103//1
f 104//3 88//3 29//3
f 15//2 4//2 16//2 17//2
f 59//5 60//5 57//5 58//5
f 47//9 22//9 63//9 117//9
f 56//2 11//2 10//2
f 56//7 134//7 92//7
f 56//5 135//5 136//5
f 137//2 138//2 134//2
f 134//1 102//1 139//1
f 12//5 134//5 9//5
f 139//2 140//2 141//2
f 81//10 82//7 83//7 84//11
f 88//4 29//4 89//4
f 22//4 23//4 24//4 25//4
f 129//9 107//9 104//9
f 3//9 4//9 1//9 2//9
f 41//5 44//5 58//5
f 42//3 41//3 67//3
f 115//9 143//9 55//9
f 54//4 144//4 55//4
f 101//5 109//5 132//5 168//5
f 79//1 150//1 185//1 78//1
f 143//7 111//7 110//7 100//7
f 143//5 148//5 11//5
f 36//1 76//1 62//1 37//1
f 74//2 75//2 76//2 33//2
f 95//4 3//4 96//4
f 155//7 154//7 176//7 33//7
f 128//9 129//9 104//9 130//9
f 158//5 21//5 159//5
f 148//7 143//7 100//7 149//7
f 161//1 162//1 115//1
f 19//5 163//5 20//5
f 171//6 172//6 168//6 77//6
f 123//5 124//5 60//5 59//5
f 114//4 112//4 75//4 113//4
f 105//12 133//12 60//12 84//12 81//12
f 1//3 168//3 132//3
f 96//9 97//9 98//9 95//9
f 167//3 19//3 166//3 132//3
f 95//4 4//4 3//4
f 131//3 2//3 1//3
f 51//3 50//3 151//3
f 173//4 146//4 174//4
f 6//3 129//3 128//3
f 167//2 161//2 175//2
f 33//4 176//4 74//4
f 68//3 73//3 69//3
f 8//4 7//4 153//4
f 15//2 171//2 77//2
f 51//2 79//2 52//2
f 99//3 177//3 78//3
f 16//4 102//4 17//4
f 104//3 107//3 125//3
f 111//2 143//2 108//2
f 26//3 176//3 27//3
f 59//3 146//3 178//3
f 91//5 179//5 180//5
f 83//2 137//2 84//2
f 48//5 150//5 151//5
f 48//2 65//2 127//2
f 164//3 7//3 181//3
f 7//13 164//13 14//13
f 2//3 182//3 13//3
f 13//3 152//3 14//3
f 13//2 156//2 8//2
f 154//7 27//7 176//7
f 121//4 28//4 32//4
f 154//5 28//5 27//5
f 28//5 169//5 26//5
f 164//5 142//5 97//5 3//5
f 32//2 155//2 33//2
f 32//4 35//4 40//4
f 24//3 25//3 34//3
f 45//4 40//4 39//4
f 47//7 183//7 48//7
f 184//4 46//4 39//4
f 126//4 127//4 65//4
f 38//5 23//5 39//5
f 23//5 126//5 39//5
f 165//3 183//3 47//3
f 174//2 144//2 54//2 173//2
f 48//6 151//6 50//6
f 72//4 184//4 52//4
f 184//4 65//4 52//4
f 49//6 65//6 48//6 50//6
f 52//4 70//4 71//4
f 176//6 26//6 170//6
f 169//5 124//5 123//5
f 76//3 75//3 170//3
f 34//2 33//2 76//2
f 122//1 137//1 134//1 139//1
f 61//7 62//7 63//7 64//7
f 62//2 80//2 116//2
f 62//7 116//7 85//7
f 85//7 93//7 63//7
f 9//14 134//7 56//7 10//15
f 62//5 61//5 25//5
f 24//5 37//5 62//5
f 118//3 90//3 85//3
f 90//3 93//3 85//3
f 23//2 22//2 63//2
f 22//2 64//2 63//2
f 8//2 153//2 152//2 13//2
f 93//2 90//2 63//2
f 90//2 118//2 23//2
f 63//9 94//9 117//9
f 34//3 36//3 37//3 24//3
f 23//4 22//4 47//4
f 43//6 44//6 41//6 42//6
f 120//4 117//4 186//4
f 94//3 93//3 117//3
f 93//3 90//3 117//3
f 185//5 150//5 186//5
f 150//5 183//5 186//5
f 131//3 1//3 132//3 133//3
f 126//7 23//7 48//7 127//7
f 186//3 120//3 30//3
f 71//2 70//2 73//2 187//2
f 79//4 51//4 68//4
f 188//4 79//4 68//4
f 177//5 51//5 78//5
f 78//3 185//3 186//3 30//3
f 5//9 6//9 7//9 8//9
f 123//1 178//1 146//1
f 146//1 173//1 147//1
f 59//5 178//5 123//5
f 147//2 173//2 190//2
f 150//3 79//3 51//3 151//3
f 113//5 75//5 147//5
f 75//5 76//5 147//5
f 147//5 76//5 145//5
f 21//5 41//5 58//5 57//5
f 135//3 179//3 190//3
f 112//2 114//2 91//2
f 85//9 112//9 91//9
f 91//9 180//9 92//9
f 92//16 138//16 83//16
f 83//16 118//16 85//16
f 80//4 112//4 85//4
f 163//3 41//3 21//3 20//3
f 137//3 138//3 92//3
f 180//3 179//3 92//3
f 117//7 90//7 83//7
f 109//4 110//4 111//4 108//4
f 82//7 186//7 117//7
f 120//2 186//2 82//2
f 31//1 119//1 82//1
f 120//9 165//9 47//9 117//9
f 29//5 88//5 30//5
f 2//5 14//5 164//5 3//5
f 107//3 104//3 29//3
f 103//2 125//2 107//2
f 146//6 59//6 58//6
f 190//2 173//2 54//2
f 53//2 190//2 54//2
f 136//8 53//8 56//8
f 55//1 192//1 56//1
f 11//3 148//3 55//3
f 148//3 192//3 55//3
f 56//2 192//2 148//2
f 56//2 148//2 11//2
f 92//7 135//7 56//7
f 75//6 74//6 176//6 170//6
f 134//7 193//7 92//7
f 92//4 193//4 138//4
f 138//2 193//2 134//2
f 39//9 40//9 24//9 38//9
f 134//1 194//1 102//1
f 102//1 16//1 139//1
f 12//5 149//5 134//5
f 149//5 194//5 134//5
f 102//3 194//3 149//3
f 149//3 12//3 102//3
f 139//2 16//2 140//2
f 139//7 141//7 98//7
f 98//7 142//7 139//7
f 139//5 86//5 89//5
f 97//3 142//3 98//3
f 105//2 106//2 103//2 107//2
f 88//4 87//4 104//4
f 87//4 130//4 104//4
f 154//4 155//4 32//4 28//4
f 157//2 105//2 5//2
f 44//4 43//4 66//4
f 66//4 144//4 44//4
f 57//5 159//5 21//5
f 53//1 54//1 55//1 56//1
f 9//17 10//18 11//4 12//4
f 163//3 67//3 41//3
f 144//2 66//2 67//2
f 147//7 190//7 179//7 91//7
f 115//9 108//9 143//9
f 143//9 11//9 55//9
f 144//4 66//4 55//4
f 115//3 67//3 163//3
f 103//3 99//3 78//3 30//3
f 12//2 149//2 100//2
f 102//6 12//6 100//6
f 15//6 17//6 102//6
f 110//5 109//5 100//5
f 109//5 101//5 100//5
f 141//2 140//2 95//2
f 98//9 140//9 95//9
f 141//4 140//4 98//4
f 6//9 181//9 7//9
f 96//5 3//5 97//5
f 145//1 123//1 146//1 147//1
f 158//5 18//5 21//5
f 42//2 67//2 66//2 43//2
f 189//1 175//1 161//1
f 115//4 162//4 108//4
f 19//5 189//5 163//5
f 45//4 121//4 32//4 40//4
f 161//9 167//9 132//9
f 108//4 162//4 109//4
f 162//4 191//4 109//4
f 161//5 191//5 162//5
f 166//3 133//3 132//3
f 15//4 172//4 171//4
f 15//4 101//4 172//4
f 85//9 91//9 92//9 83//9
f 168//5 172//5 101//5
f 1//3 77//3 168//3
f 131//3 182//3 2//3
f 181//5 6//5 142//5 164//5
f 6//3 5//3 129//3
f 39//4 126//4 65//4 184//4
f 79//2 188//2 52//2
f 30//1 88//1 104//1 103//1
f 83//2 138//2 137//2
f 48//5 183//5 150//5
f 87//7 86//7 139//7 142//7
f 160//12 159//12 57//12
f 92//3 179//3 135//3
f 166//4 160//4 19//4
f 105//12 81//12 84//12 60//12 46//12
f 87//5 142//5 6//5
f 72//12 71//12 187//12
f 106//12 105//12 184//12
f 105//12 157//12 133//12
f 184//12 105//12 46//12
f 72//12 187//12 106//12
f 45//12 46//12 124//12
f 184//12 72//12 106//12
f 157//12 156//12 182//12
f 156//12 13//12 182//12
f 18//3 158//3 160//3 19//3
f 28//12 121//12 169//12
f 121//12 45//12 169//12
f 169//12 45//12 124//12
f 124//12 46//12 60//12
f 131//12 133//12 157//12
f 133//12 166//12 57//12
f 157//12 182//12 131//12
f 160//12 158//12 159//12
f 133//12 57//12 60//12
f 166//12 160//12 57//12
